<svg xmlns="http://www.w3.org/2000/svg"
     width="628" height="320"
     viewBox="0 0 6280 3200">
    <g id="l4PDzL83uxrnUAQIWhQi7VR" fill="rgb(50,102,153)">
        <g style="transform: none;">
            <path id="ptZqdExte"
                  d="M4203 2512 c-24 -2 -43 -8 -43 -13 0 -5 -6 -9 -12 -7 -37 8 -206 -61 -273 -112 -22 -16 -49 -34 -60 -39 -25 -11 -157 -154 -199 -216 -27 -39 -95 -180 -102 -210 -4 -16 -10 -34 -15 -40 -4 -5 -8 -14 -9 -20 -2 -5 -4 -14 -6 -20 -2 -5 -8 -45 -14 -88 -20 -151 -7 -373 26 -444 7 -17 14 -36 14 -42 0 -21 57 -137 96 -197 21 -32 41 -64 44 -69 15 -31 197 -188 264 -228 43 -26 82 -47 85 -47 4 0 24 -9 45 -20 21 -10 59 -22 85 -26 25 -4 51 -11 58 -16 7 -5 17 -7 23 -3 6 4 17 1 25 -5 10 -8 54 -10 147 -7 128 5 156 8 188 20 8 3 29 8 45 12 17 3 76 29 133 57 56 28 105 48 108 45 3 -3 11 -27 18 -54 12 -46 14 -48 54 -54 31 -4 46 -1 56 10 8 9 15 18 15 21 0 3 2 12 5 20 2 8 10 40 16 70 7 30 18 69 25 85 7 17 16 50 20 75 4 25 12 51 17 58 6 6 7 12 3 12 -4 0 -3 6 3 13 5 6 13 32 17 57 4 25 16 71 27 102 29 86 19 101 -81 111 -26 2 -27 1 -85 -123 -10 -19 -30 -55 -46 -80 -16 -25 -33 -52 -36 -60 -20 -46 -143 -156 -209 -189 -137 -66 -131 -65 -276 -66 -94 0 -141 4 -151 12 -8 7 -17 11 -20 8 -14 -14 -196 93 -248 145 -73 74 -168 230 -186 305 -4 17 -11 35 -16 42 -5 7 -7 17 -4 22 4 5 2 12 -4 16 -5 3 -10 24 -10 45 0 21 -3 41 -7 43 -14 9 3 349 17 357 7 5 10 15 7 24 -3 8 0 28 8 43 8 15 15 35 16 43 0 8 18 47 40 85 21 39 42 78 45 88 4 9 10 17 15 17 5 0 9 6 9 13 0 31 250 230 268 213 3 -3 10 -2 16 3 6 5 40 15 76 22 36 7 68 17 71 22 13 18 240 -7 314 -35 80 -29 168 -78 245 -136 58 -44 190 -176 190 -191 0 -6 3 -11 6 -11 12 0 104 64 104 72 0 23 -184 238 -204 238 -3 0 -34 22 -69 48 -77 60 -236 138 -299 147 -26 3 -50 11 -54 16 -3 5 -20 10 -37 10 -18 0 -90 1 -162 2 -71 1 -149 1 -172 -1z"></path>
            <path id="paAXva8be"
                  d="M823 2488 c-2 -5 -47 -8 -99 -8 l-95 0 3 -52 3 -53 83 -5 c73 -5 85 -9 110 -33 l27 -27 0 -740 c0 -593 -3 -742 -13 -752 -15 -15 -175 -21 -201 -8 -9 4 -37 12 -62 18 -66 16 -162 83 -209 148 -45 60 -110 179 -110 201 0 16 -42 9 -77 -13 -12 -8 -29 -14 -38 -14 -19 0 -19 -13 1 -52 9 -17 24 -59 35 -92 23 -79 91 -270 112 -320 9 -21 17 -43 17 -49 0 -17 33 -36 62 -37 23 0 29 6 36 33 l8 32 562 3 562 2 0 -23 c0 -33 18 -47 60 -47 34 0 38 3 55 43 9 23 23 53 30 67 7 14 13 27 13 30 1 3 3 12 6 20 3 8 12 38 20 65 8 28 26 82 41 120 14 39 34 93 44 120 10 28 21 57 25 65 5 13 -7 21 -56 37 l-63 21 -39 -77 c-21 -42 -53 -97 -71 -123 -51 -76 -166 -154 -241 -165 -24 -3 -44 -9 -44 -13 0 -4 -45 -8 -99 -8 -95 0 -99 1 -110 25 -15 34 -16 1429 0 1439 6 3 9 14 6 24 -3 12 6 29 25 47 26 24 39 29 106 33 l77 5 5 47 c3 26 1 52 -5 60 -8 10 -64 13 -253 13 -134 0 -246 -3 -249 -7z"></path>
            <path id="pCdi1LBQK"
                  d="M2043 2488 c-2 -5 -47 -8 -99 -8 l-95 0 3 -52 3 -53 75 -6 c41 -3 83 -9 93 -13 47 -22 47 -19 47 -774 0 -849 11 -787 -139 -799 l-81 -6 0 -53 0 -54 428 0 c403 0 690 12 702 29 3 4 28 13 55 20 60 15 123 50 188 105 86 74 136 163 158 281 11 54 2 215 -11 215 -4 0 -11 17 -15 38 -7 41 -51 116 -90 152 -14 13 -25 28 -25 34 -1 13 -65 62 -119 91 -68 37 -116 54 -171 60 -30 4 -62 9 -70 11 -8 3 -137 5 -287 4 l-273 -1 0 275 c0 172 4 277 10 281 6 3 10 19 10 34 0 47 31 65 124 71 l81 5 3 52 c3 52 3 52 -30 58 -48 9 -469 11 -475 3z m651 -917 c3 -4 43 -10 89 -13 82 -5 177 -35 177 -56 0 -5 9 -12 21 -15 11 -3 23 -15 26 -26 3 -12 10 -21 15 -21 5 0 25 -34 44 -76 33 -70 35 -82 35 -175 0 -55 -4 -106 -9 -112 -5 -7 -16 -33 -26 -60 -23 -62 -78 -117 -157 -158 l-64 -33 -262 -4 -263 -4 0 371 0 371 28 0 c15 0 34 5 42 10 19 12 297 13 304 1z"></path>
            <path id="psoZfKxJN" d="M6040 1056 c0 -35 4 -46 16 -46 12 0 14 9 12 42 -4 59 -28 63 -28 4z"></path>
            <path id="p1BvHAaidg"
                  d="M5570 910 c0 -22 4 -40 9 -40 5 0 11 -9 14 -20 4 -15 14 -20 41 -20 32 0 36 3 36 25 0 21 -5 25 -30 25 -28 0 -30 3 -30 35 0 28 -4 35 -20 35 -17 0 -20 -7 -20 -40z"></path>
            <path id="p13ROh2Zh0"
                  d="M5468 718 c-19 -13 23 -39 94 -60 49 -14 58 -14 58 -2 0 8 -6 14 -14 14 -7 0 -38 13 -69 28 -36 18 -61 25 -69 20z"></path>
        </g>
    </g>
    <g id="lEQDVx1e88WHn7OJInl9SM" fill="rgb(52,93,134)">
        <g style="transform: none;">
            <path id="p18RmSnMOm"
                  d="M4240 2514 c0 -3 6 -12 14 -20 17 -17 150 -20 192 -4 20 8 29 8 35 -1 3 -6 40 -17 80 -24 41 -7 79 -14 84 -15 22 -5 35 1 35 15 0 10 -10 15 -30 15 -16 0 -30 5 -30 11 0 6 -8 8 -19 4 -11 -3 -22 -1 -25 4 -4 5 -21 7 -40 4 -19 -3 -36 -1 -40 6 -7 11 -256 17 -256 5z"></path>
            <path id="pVRDkrQL1"
                  d="M4160 2498 c0 -5 -6 -8 -12 -5 -13 4 -102 -24 -114 -36 -15 -15 8 -27 29 -15 12 6 51 17 87 23 43 7 66 15 68 25 2 10 -7 15 -28 16 -16 1 -30 -3 -30 -8z"></path>
            <path id="pZaJVg635"
                  d="M823 2488 c-2 -5 -44 -8 -94 -8 -78 0 -89 -2 -89 -17 0 -16 9 -18 86 -15 62 3 87 7 91 18 7 19 353 21 353 2 0 -9 4 -8 10 2 8 12 10 12 10 1 0 -10 11 -12 44 -9 56 7 68 -1 64 -43 l-3 -34 -65 -5 c-36 -3 -74 -11 -85 -18 -19 -13 -18 -13 5 -6 14 4 57 9 95 11 39 3 75 9 81 14 10 8 9 42 -1 94 -4 19 -12 20 -250 20 -136 0 -249 -3 -252 -7z"></path>
            <path id="p108I5PTUo"
                  d="M2043 2488 c-2 -5 -47 -8 -100 -8 -83 0 -94 -2 -89 -16 3 -9 6 -16 6 -17 0 -1 38 -1 86 1 62 3 87 7 91 18 4 11 36 14 164 14 105 0 159 -4 159 -11 0 -6 22 -9 55 -8 30 1 55 6 55 11 0 4 6 8 13 8 19 0 39 -42 35 -71 -3 -23 -7 -24 -80 -27 -52 -2 -80 -7 -88 -17 -10 -12 -9 -15 3 -15 9 0 19 5 22 10 3 6 42 10 85 10 47 0 82 4 86 11 4 6 7 31 8 55 l1 44 -41 6 c-61 9 -465 10 -471 2z"></path>
            <path id="pQlDm1pV1"
                  d="M4725 2440 c2 -26 15 -40 39 -40 13 0 29 -7 36 -15 7 -8 18 -15 24 -15 7 0 21 -8 32 -17 11 -10 42 -34 69 -53 28 -19 56 -40 63 -47 7 -7 22 -13 33 -13 13 0 19 -6 17 -17 -2 -12 5 -19 20 -21 16 -2 22 -8 18 -18 -3 -8 1 -14 9 -14 8 0 14 -4 13 -8 -5 -13 46 -82 60 -82 18 0 15 15 -11 52 -46 66 -228 228 -256 228 -6 0 -11 4 -11 9 0 5 -35 27 -78 48 -59 28 -78 34 -77 23z"></path>
            <path id="phGETPv0d"
                  d="M3986 2441 c-3 -4 -19 -11 -36 -14 -17 -4 -30 -13 -30 -21 0 -12 6 -13 33 -4 36 12 57 26 57 39 0 12 -17 12 -24 0z"></path>
            <path id="p1FYeNT5z6"
                  d="M3874 2381 c-35 -21 -51 -41 -35 -41 6 0 11 5 11 11 0 5 4 8 8 5 9 -6 22 2 41 27 17 22 13 21 -25 -2z"></path>
            <path id="pPanBD6Pj" d="M640 2378 c0 -5 28 -7 63 -7 67 1 60 6 -15 11 -27 2 -48 0 -48 -4z"></path>
            <path id="pz3RzlWr1" d="M1860 2378 c0 -5 28 -7 63 -7 67 1 60 6 -15 11 -27 2 -48 0 -48 -4z"></path>
            <path id="pv1dxA2lO" d="M4373 2363 c26 -2 67 -2 90 0 23 2 2 3 -48 3 -49 0 -68 -1 -42 -3z"></path>
            <path id="pV6eBKHJS" d="M1105 2331 c-10 -17 12 -21 25 -6 10 12 10 15 -3 15 -9 0 -18 -4 -22 -9z"></path>
            <path id="pUjknFZFL" d="M4639 2325 c44 -19 64 -19 27 0 -15 8 -36 15 -45 15 -9 -1 -1 -7 18 -15z"></path>
            <path id="pB2xRKdrs"
                  d="M4175 2323 c-11 -3 -39 -18 -63 -34 -24 -16 -47 -29 -52 -29 -5 0 -24 -15 -43 -32 -18 -18 -55 -52 -81 -76 -27 -24 -45 -46 -42 -49 4 -4 32 18 64 48 51 50 81 73 131 104 9 6 31 20 48 33 17 12 35 22 40 21 4 -1 15 0 23 4 8 3 22 8 30 10 19 7 -29 6 -55 0z"></path>
            <path id="pQFBq6j2P" d="M4700 2305 c0 -7 61 -37 66 -33 2 3 -12 12 -31 21 -19 9 -35 15 -35 12z"></path>
            <path id="povKkNwNa"
                  d="M1075 2248 c-8 -72 -2 -1435 7 -1443 4 -4 14 -5 23 -1 12 4 14 10 5 25 -14 27 -14 1427 0 1436 17 11 11 35 -9 35 -16 0 -21 -9 -26 -52z"></path>
            <path id="pmuZs1F8K" d="M2318 2292 c-22 -4 -23 -18 -3 -26 9 -3 18 1 22 10 7 18 3 21 -19 16z"></path>
            <path id="p1951nLswx"
                  d="M3714 2243 c-21 -26 -48 -57 -60 -69 -43 -45 -144 -238 -144 -277 0 -9 -4 -18 -10 -22 -5 -3 -7 -12 -3 -20 3 -8 1 -15 -5 -15 -15 0 -32 -164 -30 -281 2 -85 2 -90 5 -29 4 122 23 293 34 306 5 6 16 33 24 60 14 46 83 192 115 242 8 12 19 22 25 22 6 0 19 16 29 35 11 19 23 35 27 35 5 0 15 14 24 30 9 17 14 30 12 30 -2 0 -21 -21 -43 -47z"></path>
            <path id="pGYTMfxIg"
                  d="M2072 1568 c-1 -458 -6 -709 -12 -713 -5 -3 -10 -16 -10 -28 1 -20 2 -20 15 5 13 23 15 128 12 735 l-2 708 -3 -707z"></path>
            <path id="p16lU33U0y"
                  d="M2297 2253 c-4 -3 -7 -127 -7 -275 0 -232 2 -268 15 -268 13 0 15 37 15 275 0 151 -4 275 -8 275 -5 0 -12 -3 -15 -7z"></path>
            <path id="p69tewi8Z"
                  d="M860 1542 c-5 -692 -6 -714 -24 -728 -23 -17 -196 -20 -196 -4 0 6 -11 10 -25 10 -16 0 -25 -6 -25 -15 0 -8 9 -15 19 -15 11 0 23 -4 26 -10 10 -16 162 -12 195 5 24 13 29 22 35 67 3 29 5 357 3 728 l-3 675 -5 -713z"></path>
            <path id="p19YlrlnrZ"
                  d="M4879 2203 c14 -10 63 -55 110 -100 46 -46 86 -81 88 -80 6 6 -172 174 -197 186 l-25 12 24 -18z"></path>
            <path id="pMgjCC70e"
                  d="M3873 2078 c-22 -28 -24 -38 -8 -38 8 0 19 8 22 18 4 9 11 20 17 24 7 5 5 8 -5 8 -9 0 -21 -6 -26 -12z"></path>
            <path id="pFftJrj28"
                  d="M5173 2073 c-7 -3 -13 -11 -13 -18 0 -8 -7 -21 -16 -29 -20 -21 -9 -20 27 1 37 22 39 59 2 46z"></path>
            <path id="pLLn7LGJU" d="M5090 1994 c0 -16 9 -18 28 -5 10 6 9 10 -7 14 -14 3 -21 0 -21 -9z"></path>
            <path id="poiPPDpg5"
                  d="M3832 1988 c-5 -7 -13 -23 -16 -35 -4 -13 -15 -23 -24 -23 -15 0 -15 -2 -2 -10 13 -8 12 -10 -4 -10 -14 0 -17 -6 -14 -25 3 -14 1 -25 -3 -25 -5 0 -6 -7 -3 -15 4 -8 1 -15 -7 -15 -7 0 -9 -3 -6 -6 11 -12 36 16 42 49 4 18 15 46 24 62 30 52 37 82 13 53z"></path>
            <path id="p1EU0Smujn"
                  d="M3735 1766 c-4 -25 -4 -49 0 -55 3 -6 0 -11 -7 -11 -10 0 -9 -3 2 -10 20 -12 30 5 30 53 0 20 5 37 10 37 6 0 10 7 10 15 0 8 -9 15 -19 15 -16 0 -21 -9 -26 -44z"></path>
            <path id="pKnGauFnq"
                  d="M2585 1710 c-154 -3 -281 -7 -283 -8 -2 -1 0 -6 3 -12 10 -16 532 -13 538 3 3 8 9 6 19 -7 11 -14 24 -18 56 -14 31 2 42 0 42 -10 0 -10 8 -12 28 -7 20 4 36 0 54 -15 31 -23 44 -25 51 -6 8 19 -75 54 -148 62 -33 4 -64 9 -70 13 -5 3 -136 4 -290 1z"></path>
            <path id="piSiSriNh"
                  d="M3740 1640 c0 -5 -8 -10 -17 -11 -15 0 -15 -2 2 -9 l20 -9 -20 -1 c-20 -1 -20 -1 -1 -15 17 -13 18 -15 3 -15 -11 0 -17 -8 -17 -25 0 -18 5 -25 19 -25 15 0 18 9 20 60 1 33 -1 60 -4 60 -3 0 -5 -4 -5 -10z"></path>
            <path id="p8RhduU75"
                  d="M3113 1625 c-9 -10 -1 -20 41 -51 29 -21 63 -53 75 -71 11 -18 30 -33 40 -33 19 0 35 -25 26 -40 -3 -4 5 -10 16 -13 17 -5 20 -11 14 -35 -8 -37 18 -102 39 -102 9 0 16 9 16 20 0 11 -4 20 -9 20 -5 0 -12 16 -15 35 -7 35 -70 139 -100 164 -9 7 -16 19 -16 25 -1 6 -19 25 -42 41 -23 17 -48 35 -57 42 -12 9 -19 9 -28 -2z"></path>
            <path id="puGt0d7MF"
                  d="M2347 1573 c-60 -18 -58 -25 3 -11 25 6 97 14 160 17 l115 7 -115 1 c-75 1 -132 -4 -163 -14z"></path>
            <path id="pfTCTQ2rG"
                  d="M2860 1553 c8 -3 30 -12 48 -19 17 -7 32 -11 32 -8 0 7 -67 34 -82 33 -8 0 -8 -3 2 -6z"></path>
            <path id="p1BDcabyyu"
                  d="M2290 1171 c0 -298 2 -361 14 -370 16 -13 307 -18 345 -6 55 17 8 25 -154 25 l-175 0 0 355 c0 309 -2 355 -15 355 -13 0 -15 -47 -15 -359z"></path>
            <path id="p4wofKNCj"
                  d="M3728 1513 c-10 -2 -15 -10 -11 -19 8 -21 33 -17 33 6 0 11 -1 19 -2 19 -2 -1 -11 -3 -20 -6z"></path>
            <path id="p1wVniRLS" d="M3473 1415 c0 -22 2 -30 4 -17 2 12 2 30 0 40 -3 9 -5 -1 -4 -23z"></path>
            <path id="pPsUqDhGG" d="M3736 1399 c-9 -45 -8 -49 9 -49 10 0 15 10 15 34 0 45 -16 55 -24 15z"></path>
            <path id="pvgGt03mI"
                  d="M5553 1394 c-108 -38 -195 -123 -239 -234 -23 -58 -26 -79 -22 -146 6 -113 34 -176 111 -252 67 -67 113 -97 123 -81 6 11 -14 30 -59 55 -40 22 -59 43 -99 110 -48 80 -65 166 -48 242 28 125 94 211 205 267 54 27 69 30 155 30 79 0 102 -4 140 -23 84 -44 123 -77 161 -139 54 -88 69 -146 59 -224 -10 -77 -18 -100 -63 -170 -44 -69 -56 -79 -147 -125 -69 -35 -82 -39 -155 -38 -45 0 -90 5 -102 12 -19 11 -23 10 -23 -3 0 -8 3 -15 8 -16 4 0 16 -3 27 -7 11 -3 54 -6 95 -6 130 -1 223 42 302 142 139 174 108 410 -72 548 -102 78 -237 100 -357 58z"></path>
            <path id="p3d1fnKJO"
                  d="M3480 1345 c0 -14 4 -25 9 -25 4 0 6 11 3 25 -2 14 -6 25 -8 25 -2 0 -4 -11 -4 -25z"></path>
            <path id="pTJvYo6VU"
                  d="M3760 1326 c0 -8 -6 -17 -12 -19 -8 -3 -6 -6 5 -6 20 -1 23 -17 5 -25 -9 -3 -7 -9 6 -20 11 -9 15 -16 8 -16 -17 0 -3 -27 17 -33 17 -4 17 0 8 37 -5 22 -14 46 -19 53 -5 7 -7 17 -4 22 4 5 2 12 -4 16 -5 3 -10 0 -10 -9z"></path>
            <path id="pRZUgNxgB"
                  d="M5005 1265 c-8 -21 -13 -41 -10 -44 3 -3 8 5 11 17 4 12 14 23 23 26 26 6 72 0 79 -11 4 -5 15 -12 25 -16 13 -5 17 -1 17 18 0 30 -3 31 -72 40 l-57 7 -16 -37z"></path>
            <path id="pvO0tK4no" d="M3103 1245 c0 -27 2 -38 4 -22 2 15 2 37 0 50 -2 12 -4 0 -4 -28z"></path>
            <path id="p1BPDmHFdF" d="M3510 1260 c0 -17 17 -47 23 -40 2 3 -2 16 -10 30 -7 14 -13 18 -13 10z"></path>
            <path id="pXbdZP1fu"
                  d="M3380 1230 c0 -5 -6 -10 -14 -10 -18 0 -18 -50 1 -57 11 -4 10 -8 -4 -19 -17 -12 -17 -13 5 -14 20 0 22 5 22 55 0 30 -2 55 -5 55 -3 0 -5 -4 -5 -10z"></path>
            <path id="psn4LCDSd"
                  d="M5494 1226 c-2 -6 -3 -104 -2 -216 l3 -205 126 1 c179 0 209 18 209 121 0 39 -5 50 -34 78 -31 29 -32 33 -16 43 14 8 110 173 110 188 0 6 -82 4 -106 -2 -15 -4 -32 -28 -53 -74 -34 -77 -40 -82 -87 -86 l-33 -2 -3 80 -3 81 -53 2 c-32 1 -56 -3 -58 -9z m214 -248 c7 -7 12 -27 12 -45 0 -34 -21 -53 -59 -53 -10 0 -21 -6 -23 -12 -10 -29 -35 38 -31 80 l5 42 42 0 c23 0 47 -5 54 -12z"></path>
            <path id="p1E0hekxvL"
                  d="M3531 1205 c0 -5 8 -26 19 -45 11 -19 19 -30 19 -25 0 6 -8 26 -19 45 -11 19 -19 31 -19 25z"></path>
            <path id="pT64iceU5"
                  d="M4967 1180 c-18 -37 -26 -50 -66 -115 -41 -67 -123 -152 -183 -191 -37 -24 -52 -49 -23 -38 8 4 15 10 15 16 0 5 4 7 9 4 5 -3 22 9 39 28 16 19 39 37 50 40 32 10 186 245 180 275 -2 10 -9 4 -21 -19z"></path>
            <path id="p1E1hbbYAR"
                  d="M3800 1180 c-12 -8 -12 -10 5 -10 17 0 17 -2 5 -10 -10 -6 -11 -10 -2 -10 6 0 12 -7 12 -15 0 -8 7 -15 15 -15 8 0 15 -4 15 -10 0 -5 -4 -10 -10 -10 -17 0 -11 -17 16 -49 14 -17 35 -31 47 -31 20 0 20 0 -2 24 -12 13 -35 51 -51 85 -16 33 -30 61 -32 61 -2 0 -10 -5 -18 -10z"></path>
            <path id="pBHaF2Uhg" d="M1746 1164 c-6 -15 22 -34 48 -34 27 0 18 25 -13 37 -24 9 -31 8 -35 -3z"></path>
            <path id="pgp0kuZ08"
                  d="M1697 1155 c-4 -11 -10 -27 -13 -35 -5 -12 -3 -12 11 1 9 9 15 25 13 35 -4 18 -4 18 -11 -1z"></path>
            <path id="p16oEhyyFk" d="M5090 1149 c0 -24 23 -21 28 4 2 10 -3 17 -12 17 -10 0 -16 -9 -16 -21z"></path>
            <path id="p5u8RPL5V"
                  d="M3102 1127 c-1 -21 -7 -48 -13 -60 -11 -20 -10 -21 5 -6 13 12 16 28 13 60 -3 44 -4 44 -5 6z"></path>
            <path id="p3iF4Yyn2"
                  d="M130 1141 c0 -5 3 -17 6 -25 6 -15 8 -15 20 1 19 25 17 33 -6 33 -11 0 -20 -4 -20 -9z"></path>
            <path id="p1GuCSkQ2z"
                  d="M250 1140 c-11 -7 -11 -10 -2 -10 7 0 11 -4 8 -9 -3 -5 3 -11 14 -14 23 -6 25 2 8 26 -9 12 -17 14 -28 7z"></path>
            <path id="p15KaVV90j"
                  d="M1820 1135 c0 -8 -4 -15 -10 -15 -5 0 -16 -13 -24 -29 -14 -27 -14 -29 5 -34 14 -4 19 -1 16 7 -3 7 3 26 14 42 21 33 24 44 9 44 -5 0 -10 -7 -10 -15z"></path>
            <path id="pJ2Rojhnp" d="M5093 1113 c-16 -6 -17 -33 -3 -33 11 0 26 28 19 34 -2 2 -10 1 -16 -1z"></path>
            <path id="pDFN6yGZP"
                  d="M280 1080 c-12 -8 -13 -10 -1 -10 8 0 11 -3 8 -7 -4 -3 2 -13 14 -21 11 -8 18 -20 15 -28 -3 -8 1 -14 8 -14 18 0 49 -36 43 -52 -5 -16 30 -68 47 -68 7 0 24 -10 38 -22 33 -30 82 -58 102 -58 27 0 18 29 -11 36 -16 4 -32 12 -38 18 -5 7 -27 22 -47 34 -46 29 -91 80 -141 164 -17 29 -26 35 -37 28z"></path>
            <path id="pms7kV6K8"
                  d="M1616 1006 c-27 -44 -61 -84 -81 -96 -21 -13 -32 -26 -28 -33 5 -8 8 -8 11 1 2 7 7 10 11 7 10 -6 70 60 95 105 11 19 25 40 31 45 15 13 27 45 16 45 -4 0 -29 -33 -55 -74z"></path>
            <path id="pWZrPQqLF"
                  d="M3342 1052 c3 -10 -1 -23 -9 -30 -16 -15 -17 -42 -2 -42 10 0 39 59 39 80 0 5 -7 10 -16 10 -11 0 -15 -6 -12 -18z"></path>
            <path id="p1Cy5ShMR3"
                  d="M3066 1011 c-4 -18 -26 -51 -47 -72 -50 -50 -50 -59 0 -18 42 33 65 76 59 106 -3 12 -7 7 -12 -16z"></path>
            <path id="pEoc2IGdS"
                  d="M5044 994 c-4 -14 -7 -43 -8 -65 0 -24 -5 -39 -13 -39 -7 0 -13 -7 -13 -16 0 -9 7 -14 18 -12 12 2 21 20 30 63 7 33 18 68 23 78 7 13 5 17 -11 17 -13 0 -22 -9 -26 -26z"></path>
            <path id="p16xCxjE3U"
                  d="M1764 1001 c3 -5 -1 -11 -9 -15 -18 -7 -20 -32 -2 -39 8 -4 7 -6 -3 -6 -20 -1 -41 -50 -34 -77 4 -14 0 -23 -11 -28 -11 -4 -14 -12 -10 -25 3 -12 0 -21 -10 -25 -21 -8 -20 -38 2 -34 10 2 22 24 34 63 9 33 27 86 38 117 24 65 25 78 10 78 -5 0 -8 -4 -5 -9z"></path>
            <path id="pdRBOhT5m"
                  d="M3650 999 c0 -8 17 -27 38 -43 l37 -29 -35 39 c-19 21 -36 41 -37 43 -2 2 -3 -2 -3 -10z"></path>
            <path id="p17ZMotrWc"
                  d="M3917 993 c-13 -12 -7 -23 11 -23 23 0 76 -55 68 -69 -4 -6 0 -11 8 -11 27 0 18 20 -30 66 -51 49 -48 47 -57 37z"></path>
            <path id="p18sYOt9ok"
                  d="M3317 953 c-9 -2 -15 -9 -12 -14 4 -5 0 -9 -8 -9 -12 0 -27 -20 -27 -36 0 -14 21 1 44 31 15 19 26 34 24 34 -2 -1 -11 -3 -21 -6z"></path>
            <path id="pijn87TTV" d="M201 945 c0 -5 9 -28 20 -50 10 -22 16 -29 13 -15 -7 28 -33 80 -33 65z"></path>
            <path id="p18Yu8xrKO"
                  d="M4026 884 c-4 -11 1 -18 14 -21 11 -3 20 -9 20 -14 0 -5 6 -9 14 -9 8 0 21 -6 29 -14 25 -25 139 -68 169 -64 15 3 28 0 28 -5 0 -16 169 -4 180 13 8 12 12 12 18 2 11 -16 47 -11 72 10 10 9 20 15 22 12 10 -9 78 18 78 32 0 18 -19 14 -90 -19 -38 -18 -65 -21 -184 -21 -103 -1 -140 2 -143 11 -3 8 -14 11 -29 7 -13 -3 -24 -2 -24 3 0 6 -18 16 -40 23 -22 7 -40 17 -40 22 0 4 -6 8 -14 8 -7 0 -25 9 -39 20 -30 24 -33 24 -41 4z"></path>
            <path id="pZR9QmCXA" d="M2939 871 c-13 -11 -21 -22 -17 -26 9 -9 26 2 38 26 13 24 8 24 -21 0z"></path>
            <path id="p15aOqRPP7"
                  d="M3261 873 c-15 -6 -29 -17 -85 -68 -61 -55 -25 -41 43 17 34 28 61 53 61 55 0 3 0 3 -19 -4z"></path>
            <path id="p1BJK1bUKB" d="M3792 855 c15 -16 29 -27 31 -24 3 2 -10 15 -27 28 l-31 24 27 -28z"></path>
            <path id="po0l7q25y"
                  d="M1445 850 c-16 -11 -52 -23 -78 -26 -29 -4 -46 -11 -44 -18 6 -16 90 -8 104 10 6 8 24 19 39 23 29 7 46 31 22 31 -7 0 -26 -9 -43 -20z"></path>
            <path id="p6NgejWCp"
                  d="M5000 836 c0 -8 7 -16 15 -20 10 -4 15 1 15 14 0 11 -7 20 -15 20 -8 0 -15 -6 -15 -14z"></path>
            <path id="p1CnaQhRIC"
                  d="M2823 833 c-29 -3 -43 -9 -43 -19 0 -18 70 -20 88 -2 13 13 16 29 5 26 -5 -1 -27 -3 -50 -5z"></path>
            <path id="p1DVA1F6sn"
                  d="M2690 810 c0 -5 7 -10 15 -10 8 0 15 5 15 10 0 6 -7 10 -15 10 -8 0 -15 -4 -15 -10z"></path>
            <path id="p14l7aj1HM"
                  d="M1120 785 c0 -12 16 -15 84 -15 86 0 116 5 116 21 0 5 -45 9 -100 9 -82 0 -100 -3 -100 -15z"></path>
            <path id="pm2EWGJkw"
                  d="M1985 789 c-22 -4 -61 -8 -87 -8 -40 -1 -48 -4 -48 -20 0 -16 6 -18 48 -14 26 3 53 12 61 22 10 12 15 13 18 4 6 -16 33 -17 33 -2 0 5 5 7 10 4 6 -3 10 1 10 9 0 9 -1 15 -2 15 -2 -1 -21 -5 -43 -10z"></path>
            <path id="pwcPzzksu"
                  d="M4998 789 c-9 -5 -21 -31 -28 -59 -11 -46 -15 -50 -41 -50 -16 0 -33 7 -39 18 -10 15 -10 15 -8 -3 3 -16 12 -21 46 -23 40 -3 74 10 70 26 -1 4 4 27 11 51 14 49 13 53 -11 40z"></path>
            <path id="p1ELBjmLqJ"
                  d="M3880 788 c3 -3 21 -13 40 -23 27 -13 32 -14 20 -2 -8 8 -26 18 -40 22 -14 4 -23 5 -20 3z"></path>
            <path id="pTZT4GG9S"
                  d="M4785 766 c-11 -7 -45 -24 -75 -37 -30 -12 -57 -26 -60 -31 -14 -19 -161 -41 -282 -42 -71 -1 -128 -5 -128 -9 0 -14 285 0 330 16 8 3 29 8 45 12 38 8 205 87 205 98 0 11 -13 9 -35 -7z"></path>
            <path id="pR6PRBvZ5"
                  d="M1653 713 c-30 -70 -33 -83 -18 -83 9 0 20 12 26 28 6 15 17 39 24 55 13 24 12 27 -3 27 -9 0 -22 -12 -29 -27z"></path>
            <path id="poYAf7QxT"
                  d="M3000 720 c-13 -9 -13 -10 0 -9 8 1 26 5 40 9 l25 8 -25 1 c-14 0 -32 -4 -40 -9z"></path>
            <path id="p2JFQ4d0b"
                  d="M2890 696 c-8 -8 -155 -11 -525 -11 -283 0 -515 -4 -515 -9 0 -11 1031 -3 1050 9 8 5 27 8 42 6 14 -1 29 2 32 8 9 14 -69 12 -84 -3z"></path>
            <path id="pae03QfU2"
                  d="M4050 700 c0 -11 96 -33 112 -27 7 3 2 6 -12 7 -14 0 -42 7 -62 14 -21 8 -38 10 -38 6z"></path>
            <path id="p1hlsMNWT"
                  d="M397 668 c-24 -19 -34 -68 -13 -68 9 0 19 13 24 33 l8 32 560 5 559 5 -561 3 c-436 1 -564 -1 -577 -10z"></path>
            <path id="pu521T4FD" d="M4188 658 c9 -9 15 -9 24 0 9 9 7 12 -12 12 -19 0 -21 -3 -12 -12z"></path>
        </g>
    </g>
</svg>
